<svg xmlns="http://www.w3.org/2000/svg" viewBox="0 0 1440 320"><path fill="#0099ff" fill-opacity="1" d="M0,64L12,96C24,128,48,192,72,186.7C96,181,120,107,144,96C168,85,192,139,216,138.7C240,139,264,85,288,58.7C312,32,336,32,360,32C384,32,408,32,432,53.3C456,75,480,117,504,154.7C528,192,552,224,576,208C600,192,624,128,648,112C672,96,696,128,720,138.7C744,149,768,139,792,144C816,149,840,171,864,192C888,213,912,235,936,202.7C960,171,984,85,1008,85.3C1032,85,1056,171,1080,208C1104,245,1128,235,1152,218.7C1176,203,1200,181,1224,149.3C1248,117,1272,75,1296,74.7C1320,75,1344,117,1368,117.3C1392,117,1416,75,1428,53.3L1440,32L1440,320L1428,320C1416,320,1392,320,1368,320C1344,320,1320,320,1296,320C1272,320,1248,320,1224,320C1200,320,1176,320,1152,320C1128,320,1104,320,1080,320C1056,320,1032,320,1008,320C984,320,960,320,936,320C912,320,888,320,864,320C840,320,816,320,792,320C768,320,744,320,720,320C696,320,672,320,648,320C624,320,600,320,576,320C552,320,528,320,504,320C480,320,456,320,432,320C408,320,384,320,360,320C336,320,312,320,288,320C264,320,240,320,216,320C192,320,168,320,144,320C120,320,96,320,72,320C48,320,24,320,12,320L0,320Z"></path></svg>
